<?xml version="1.0" encoding="UTF-8"?>
<svg id="Layer_1" data-name="Layer 1" xmlns="http://www.w3.org/2000/svg" version="1.1" viewBox="0 0 48 48">
  <defs>
    <style>
      .cls-1 {
        stroke-width: 0px;
      }

      .cls-1, .cls-2 {
        fill: #333;
      }

      .cls-3 {
        fill: none;
        stroke-linecap: round;
        stroke-width: 2.5px;
      }

      .cls-3, .cls-2 {
        stroke: #333;
        stroke-linejoin: round;
      }

      .cls-2 {
        stroke-width: 2px;
      }
    </style>
  </defs>
  <polyline class="cls-3" points="24.1 4.4 20.1 12.5 27.9 12.5 24 20.3"/>
  <g>
    <g>
      <polygon class="cls-2" points="9.6 43.6 1.9 35.3 4.7 32.7 13.6 38.2 9.6 43.6"/>
      <g>
        <path class="cls-1" d="M5.6,33.6c-.2-.2-.3-.5-.1-.7l1-1.5-.4-4.7c0-.8.2-1.7.8-2.3l1.2-1.3c.5-.6,1.2-.9,2-.9.6,0,1.3.2,1.8.5l3.9,2.6c.2.1.3.3.2.5,0,.3-.4.9-1.1,1.3-.7.3-1.6.3-2.6,0,.4.8.7,2,.3,3.5,0,.3-.3.4-.6.4-.3,0-.4-.3-.4-.6.5-2.5-1.1-4-1.1-4.1-.2-.2-.2-.5,0-.7.1-.2.4-.3.6-.2,2,1.1,3,1,3.4.8.2,0,.3-.2.4-.3l-3.5-2.4c-.4-.2-.8-.4-1.2-.4-.5,0-.9.2-1.3.6l-1.2,1.3c-.4.4-.6,1-.5,1.5l.4,4.9c0,.1,0,.2,0,.3l-1.1,1.6c-.2.2-.5.3-.7.1Z"/>
        <path class="cls-1" d="M12.3,38.1c-.2-.2-.3-.5-.1-.7l.8-1.2c.2-.3.5-.6.8-.8l.8-.6c.6-.4,1.1-1,1.5-1.6l3.2-4.8c.2-.2.5-.3.7-.1s.3.5.1.7l-3.2,4.8c-.5.7-1.1,1.3-1.8,1.8l-.8.6c-.2.2-.4.4-.6.6l-.8,1.2c-.2.2-.5.3-.7.1Z"/>
        <path class="cls-1" d="M15.3,28.7c-.7-.4-.8-1.4-.4-2l2.5-3.8c.4-.7,1.4-.8,2-.4s.8,1.4.4,2l-2.5,3.8c-.4.7-1.4.8-2,.4ZM18.9,23.4c-.2-.1-.5,0-.6.1l-2.5,3.8c-.1.2,0,.5.1.6s.5,0,.6-.1l2.5-3.8c.1-.2,0-.5-.1-.6Z"/>
        <path class="cls-1" d="M17.6,30.2c-.7-.4-.8-1.4-.4-2l2.1-3.1c.4-.7,1.4-.8,2-.4s.8,1.4.4,2l-2.1,3.1c-.4.7-1.4.8-2,.4ZM20.7,25.5c-.2-.1-.5,0-.6.1l-2.1,3.1c-.1.2,0,.5.1.6s.5,0,.6-.1l2.1-3.1c.1-.2,0-.5-.1-.6Z"/>
        <path class="cls-1" d="M11.1,23.5c0,0-.2-.2-.2-.3,0-.1,0-.3,0-.4l1.6-2.4c.4-.7,1.4-.8,2-.4s.8,1.4.4,2l-1.6,2.4c-.2.2-.5.3-.7.1l-1.3-.9c0,0-.1,0-.2-.1,0,0,0,0,0,0ZM12.1,22.9l.8.5,1.3-2c.1-.2,0-.5-.1-.6s-.5,0-.6.1l-1.3,2Z"/>
        <path class="cls-1" d="M14.9,26.1l-1.6-1.1c-.2-.2-.3-.5-.1-.7l2-3c.4-.7,1.4-.8,2-.4s.8,1.4.4,2l-2,3c-.2.2-.5.3-.7.1ZM14.3,24.5l.8.5,1.8-2.6c.1-.2,0-.5-.1-.6s-.5,0-.6.1l-1.8,2.6Z"/>
      </g>
    </g>
    <g>
      <polygon class="cls-2" points="38.4 43.6 46.1 35.3 43.3 32.7 34.4 38.2 38.4 43.6"/>
      <g>
        <path class="cls-1" d="M42.4,33.6c.2-.2.3-.5.1-.7l-1-1.5.4-4.7c0-.8-.2-1.7-.8-2.3l-1.2-1.3c-.5-.6-1.2-.9-2-.9-.6,0-1.3.2-1.8.5l-3.9,2.6c-.2.1-.3.3-.2.5,0,.3.4.9,1.1,1.3.7.3,1.6.3,2.6,0-.4.8-.7,2-.3,3.5,0,.3.3.4.6.4.3,0,.4-.3.4-.6-.5-2.5,1.1-4,1.1-4.1.2-.2.2-.5,0-.7-.1-.2-.4-.3-.6-.2-2,1.1-3,1-3.4.8-.2,0-.3-.2-.4-.3l3.5-2.4c.4-.2.8-.4,1.2-.4.5,0,.9.2,1.3.6l1.2,1.3c.4.4.6,1,.5,1.5l-.4,4.9c0,.1,0,.2,0,.3l1.1,1.6c.2.2.5.3.7.1Z"/>
        <path class="cls-1" d="M35.7,38.1c.2-.2.3-.5.1-.7l-.8-1.2c-.2-.3-.5-.6-.8-.8l-.8-.6c-.6-.4-1.1-1-1.5-1.6l-3.2-4.8c-.2-.2-.5-.3-.7-.1s-.3.5-.1.7l3.2,4.8c.5.7,1.1,1.3,1.8,1.8l.8.6c.2.2.4.4.6.6l.8,1.2c.2.2.5.3.7.1Z"/>
        <path class="cls-1" d="M30.7,28.3l-2.5-3.8c-.4-.7-.3-1.6.4-2s1.6-.3,2,.4l2.5,3.8c.4.7.3,1.6-.4,2s-1.6.3-2-.4ZM29,24l2.5,3.8c.1.2.4.3.6.1s.3-.4.1-.6l-2.5-3.8c-.1-.2-.4-.3-.6-.1s-.3.4-.1.6Z"/>
        <path class="cls-1" d="M28.4,29.8l-2.1-3.1c-.4-.7-.3-1.6.4-2s1.6-.3,2,.4l2.1,3.1c.4.7.3,1.6-.4,2s-1.6.3-2-.4ZM27.1,26.2l2.1,3.1c.1.2.4.3.6.1s.3-.4.1-.6l-2.1-3.1c-.1-.2-.4-.3-.6-.1s-.3.4-.1.6Z"/>
        <path class="cls-1" d="M36.9,23.5c0,0-.2,0-.2.1l-1.3.9c-.2.2-.5,0-.7-.1l-1.6-2.4c-.4-.7-.3-1.6.4-2s1.6-.3,2,.4l1.6,2.4c0,.1.1.3,0,.4,0,.1-.1.2-.2.3s0,0,0,0ZM34.6,21c-.1-.2-.4-.3-.6-.1s-.3.4-.1.6l1.3,2,.8-.5-1.3-2Z"/>
        <path class="cls-1" d="M32.4,26l-2-3c-.4-.7-.3-1.6.4-2s1.6-.3,2,.4l2,3c.2.2,0,.5-.1.7l-1.6,1.1c-.2.2-.5,0-.7-.1ZM31.9,21.9c-.1-.2-.4-.3-.6-.1s-.3.4-.1.6l1.8,2.6.8-.5-1.8-2.6Z"/>
      </g>
    </g>
  </g>
</svg>