<?xml version="1.0" encoding="UTF-8"?>
<svg id="Layer_1" data-name="Layer 1" xmlns="http://www.w3.org/2000/svg" version="1.1" viewBox="0 0 48 48">
  <defs>
    <style>
      .cls-1 {
        fill: #333;
      }

      .cls-1, .cls-2 {
        stroke: #333;
        stroke-linejoin: round;
        stroke-width: 2px;
      }

      .cls-2 {
        fill: none;
      }
    </style>
  </defs>
  <path class="cls-2" d="M27.7,20.3c3.1,2.7,6.3,5.7,7.5,7.2,2.4,3.4,1.6,4.4,1.2,4.7s-1.5,1.3-3.4-.6-5.2-5.2-5.2-5.2l5.7,5.8s0,1.7-.7,2.1-1.7,1.5-4.7-1.5l-3-3.1,4.8,4.7s-.3,1.3-1,2-2.1.6-3.6-.8-3.8-4-3.8-4l4.7,4.7s-.2.9-1.1.9-1.8.4-4-.9-4.9-3.7-4.9-3.7l-7.9-7.5,3-10.9h8.9"/>
  <path class="cls-2" d="M37,16.8s-5.8-2.3-9.7-3.9-6.8,1.3-6.8,1.3c0,0-3,2.5-3.5,4.1s-1.1,2.4.3,3.6,4-.7,4-.7l1-1.2,3.3-.9h.7l2.8,2.4,2.6,2.3,1.9,1.8.9.9s.7.7,1.1,1.4.9,1.5,1.1,2l3.4-2.4-2.9-10.7Z"/>
  <polygon class="cls-1" points="1.9 10.7 1.9 27.6 7.6 27.6 11.8 12.5 1.9 10.7"/>
  <polygon class="cls-1" points="46.1 12.3 46.1 29.2 40.4 29.2 36.2 14.1 46.1 12.3"/>
</svg>