<?xml version="1.0" encoding="UTF-8"?>
<svg id="Layer_1" data-name="Layer 1" xmlns="http://www.w3.org/2000/svg" version="1.1" viewBox="0 0 48 48">
  <defs>
    <style>
      .cls-1 {
        fill: #333;
      }

      .cls-1, .cls-2, .cls-3 {
        stroke-width: 0px;
      }

      .cls-2 {
        fill: #666;
      }

      .cls-3 {
        fill: #b2b2b2;
      }
    </style>
  </defs>
  <path class="cls-3" d="M19.2,14.7l.6-1.4-1.8-1.6v-1.2c0,0,1.9-1.6,1.9-1.6l-.6-1.4h-2.4c0,.1-.9-.8-.9-.8l.2-2.4-1.4-.6-1.6,1.8h-1.2c0,0-1.6-1.9-1.6-1.9l-1.4.6v2.4c.1,0-.8,1-.8,1l-2.4-.2-.6,1.4,1.8,1.6v1.4s-1.9,1.6-1.9,1.6l.6,1.4h2.4c0-.1.9.7.9.7l-.2,2.4,1.4.6,1.6-1.8h1.3s1.6,1.9,1.6,1.9l1.4-.6v-2.4c-.1,0,.7-.9.7-.9l2.4.2ZM11.6,13.1c-1.2-.5-1.7-1.8-1.2-3,.5-1.2,1.8-1.7,3-1.2,1.2.5,1.7,1.8,1.2,3-.5,1.2-1.8,1.7-3,1.2Z"/>
  <path class="cls-1" d="M35.5,29.2H12.2c-.8,0-1.5-.7-1.5-1.5v-6c0-.8.7-1.5,1.5-1.5s1.5.7,1.5,1.5v4.5h20.3v-4.5c0-.8.7-1.5,1.5-1.5s1.5.7,1.5,1.5v6c0,.8-.7,1.5-1.5,1.5Z"/>
  <g>
    <path class="cls-1" d="M23.8,38.5c-.8,0-1.5-.7-1.5-1.5v-8.5c0-.8.7-1.5,1.5-1.5s1.5.7,1.5,1.5v8.5c0,.8-.7,1.5-1.5,1.5Z"/>
    <polygon class="cls-1" points="23.8 44.5 28.1 34 23.8 36.5 19.5 34 23.8 44.5"/>
  </g>
  <path class="cls-2" d="M42.2,14.7l.6-1.4-1.8-1.6v-1.2c0,0,1.9-1.6,1.9-1.6l-.6-1.4h-2.4c0,.1-.9-.8-.9-.8l.2-2.4-1.4-.6-1.6,1.8h-1.2c0,0-1.6-1.9-1.6-1.9l-1.4.6v2.4c.1,0-.8,1-.8,1l-2.4-.2-.6,1.4,1.8,1.6v1.4s-1.9,1.6-1.9,1.6l.6,1.4h2.4c0-.1.9.7.9.7l-.2,2.4,1.4.6,1.6-1.8h1.3s1.6,1.9,1.6,1.9l1.4-.6v-2.4c-.1,0,.7-.9.7-.9l2.4.2ZM34.5,13.1c-1.2-.5-1.7-1.8-1.2-3,.5-1.2,1.8-1.7,3-1.2,1.2.5,1.7,1.8,1.2,3-.5,1.2-1.8,1.7-3,1.2Z"/>
</svg>