<?xml version="1.0" encoding="UTF-8"?>
<svg id="Layer_1" data-name="Layer 1" xmlns="http://www.w3.org/2000/svg" version="1.1" viewBox="0 0 48 48">
  <defs>
    <style>
      .cls-1 {
        fill: #b2b2b2;
        stroke-width: 0px;
      }

      .cls-2 {
        fill: #333;
      }

      .cls-2, .cls-3 {
        stroke: #333;
        stroke-linejoin: round;
        stroke-width: 2px;
      }

      .cls-3 {
        fill: none;
      }
    </style>
  </defs>
  <polygon class="cls-1" points="25.9 12.5 29.6 13.9 33.2 15.3 37 16.8 39.6 27.1 36.8 29.4 35.2 27.2 32.2 24.2 29.1 21.5 26.5 18.7 23.7 19.5 21.6 20.1 19.6 22.1 17.7 22.1 16.5 20.8 17 18.3 18.9 15.7 21.4 13.5 23.5 12.6 25.9 12.5"/>
  <g>
    <path class="cls-3" d="M27.7,20.3c3.1,2.7,6.3,5.7,7.5,7.2,2.4,3.4,1.6,4.4,1.2,4.7s-1.5,1.3-3.4-.6-5.2-5.2-5.2-5.2l5.7,5.8s0,1.7-.7,2.1-1.7,1.5-4.7-1.5l-3-3.1,4.8,4.7s-.3,1.3-1,2-2.1.6-3.6-.8-3.8-4-3.8-4l4.7,4.7s-.2.9-1.1.9-1.8.4-4-.9-4.9-3.7-4.9-3.7l-7.9-7.5,3-10.9h8.9"/>
    <path class="cls-3" d="M37,16.8s-5.8-2.3-9.7-3.9c-3.9-1.6-6.8,1.3-6.8,1.3,0,0-3,2.5-3.5,4.1s-1.1,2.4.3,3.6,4-.7,4-.7l1-1.2,3.3-.9h.7l2.8,2.4,2.6,2.3,1.9,1.8.9.9s.7.7,1.1,1.4.9,1.5,1.1,2l3.4-2.4-2.9-10.7Z"/>
    <polygon class="cls-2" points="1.9 10.7 1.9 27.6 7.6 27.6 11.8 12.5 1.9 10.7"/>
    <polygon class="cls-2" points="46.1 12.3 46.1 29.2 40.4 29.2 36.2 14.1 46.1 12.3"/>
  </g>
</svg>