<?xml version="1.0" encoding="UTF-8"?>
<svg id="Layer_1" data-name="Layer 1" xmlns="http://www.w3.org/2000/svg" viewBox="0 0 48 48">
  <path d="M33.58,21.34c1.04-2,1.49-4.36,1.07-6.85-.8-4.68-4.71-8.36-9.44-8.87-6.51-.71-12.01,4.37-12.01,10.74,0,1.8.45,3.49,1.22,4.98h0c-2.76,2.57-4.5,6.23-4.5,10.3,0,4.34,1.97,8.22,5.06,10.81h18.04c3.09-2.58,5.06-6.46,5.06-10.81,0-4.07-1.74-7.73-4.5-10.3ZM17.51,16.35c0-3.61,2.95-6.54,6.58-6.49,3.59.05,6.56,3.19,6.4,6.78-.03.8-.21,1.56-.51,2.26h0s0,0,0,0c-1.82-.85-3.83-1.34-5.97-1.34s-4.16.49-5.97,1.34h0c-.33-.78-.52-1.64-.52-2.55Z" style="fill: #333; stroke-width: 0px;"/>
</svg>