<?xml version="1.0" encoding="UTF-8"?>
<svg id="Layer_1" data-name="Layer 1" xmlns="http://www.w3.org/2000/svg" viewBox="0 0 48 48">
  <defs>
    <style>
      .cls-1 {
        fill: #333;
      }

      .cls-1, .cls-2 {
        stroke-width: 0px;
      }

      .cls-2 {
        fill: #b0b0b0;
      }
    </style>
  </defs>
  <g>
    <polygon class="cls-2" points="25 40.62 25 16.62 23 16.62 23 40.62 4 40.62 4 42.62 23 42.62 25 42.62 44 42.62 44 40.62 25 40.62"/>
    <path class="cls-1" d="M4.06,41.63v-2c10.27,0,14.23-5.05,18.42-10.4,4.5-5.74,9.18-11.69,21.46-11.6v2c-11.35-.08-15.49,5.23-19.88,10.84-4.3,5.49-8.75,11.16-20,11.16Z"/>
  </g>
  <path class="cls-1" d="M18.64,15.11c.64-1.23.92-2.69.66-4.22-.49-2.89-2.9-5.15-5.82-5.47-4.01-.43-7.4,2.7-7.4,6.62,0,1.11.27,2.15.75,3.07h0c-1.7,1.58-2.78,3.84-2.78,6.35,0,2.68,1.21,5.07,3.12,6.66h11.12c1.91-1.59,3.12-3.98,3.12-6.66,0-2.51-1.07-4.77-2.78-6.35ZM8.74,12.03c0-2.23,1.82-4.03,4.06-4,2.22.03,4.04,1.96,3.95,4.18-.02.49-.13.96-.32,1.39h0s0,0,0,0c-1.12-.53-2.36-.83-3.68-.83s-2.56.3-3.68.83h0c-.21-.48-.32-1.01-.32-1.57Z"/>
</svg>